<svg xmlns="http://www.w3.org/2000/svg" viewBox="-656 -39 1111 1453" style="background:#fff"><defs><marker id="arr" markerWidth="8" markerHeight="8" refX="7" refY="4" orient="auto"><path d="M0,0 L8,4 L0,8 Z" fill="#374151"/></marker></defs><polyline points="0,9 0,67" fill="none" stroke="#9ca3af" stroke-width="1.4" marker-end="url(#arr)"/><polyline points="0,97 0,121" fill="none" stroke="#9ca3af" stroke-width="1.4" marker-end="url(#arr)"/><polyline points="0,151 0,175" fill="none" stroke="#9ca3af" stroke-width="1.4" marker-end="url(#arr)"/><polyline points="0,205 0,229" fill="none" stroke="#9ca3af" stroke-width="1.4" marker-end="url(#arr)"/><polyline points="0,259 0,283" fill="none" stroke="#9ca3af" stroke-width="1.4" marker-end="url(#arr)"/><polyline points="0,313 0,337" fill="none" stroke="#9ca3af" stroke-width="1.4" marker-end="url(#arr)"/><polyline points="0,367 0,391" fill="none" stroke="#9ca3af" stroke-width="1.4" marker-end="url(#arr)"/><polyline points="0,421 0,445" fill="none" stroke="#9ca3af" stroke-width="1.4" marker-end="url(#arr)"/><polyline points="0,475 0,499" fill="none" stroke="#9ca3af" stroke-width="1.4" marker-end="url(#arr)"/><polyline points="0,529 0,573" fill="none" stroke="#9ca3af" stroke-width="1.4" marker-end="url(#arr)"/><polyline points="20.5,607.5 203.2,726.15" fill="none" stroke="#1f2937" stroke-width="1.4" marker-end="url(#arr)"/><polyline points="-20.5,607.5 -203.2,726.15" fill="none" stroke="#1f2937" stroke-width="1.4" marker-end="url(#arr)"/><polyline points="-203.2,756.15 -203.2,800.15" fill="none" stroke="#9ca3af" stroke-width="1.4" marker-end="url(#arr)"/><polyline points="-203.2,846.15 -203.2,1173.88 -174.55,1173.88 -174.55,1204.88 -190.55,1204.88" fill="none" stroke="#16a34a" stroke-width="1.4" marker-end="url(#arr)"/><polyline points="-223.7,834.65 -366.21,927.19" fill="none" stroke="#1f2937" stroke-width="1.4" marker-end="url(#arr)"/><polyline points="-366.21,957.19 -366.21,1009.19" fill="none" stroke="#9ca3af" stroke-width="1.4" marker-end="url(#arr)"/><polyline points="-366.21,1039.19 -366.21,1083.19" fill="none" stroke="#9ca3af" stroke-width="1.4" marker-end="url(#arr)"/><polyline points="-345.71,1117.69 -234.55,1189.88" fill="none" stroke="#1f2937" stroke-width="1.4" marker-end="url(#arr)"/><polyline points="-386.71,1117.69 -497.86,1189.88" fill="none" stroke="#1f2937" stroke-width="1.4" marker-end="url(#arr)"/><polyline points="-497.86,1219.88 -497.86,1271.88" fill="none" stroke="#9ca3af" stroke-width="1.4" marker-end="url(#arr)"/><polyline points="-541.86,1286.88 -582,1286.88 -582,942.19 -410.21,942.19" fill="none" stroke="#2563eb" stroke-width="1.4" marker-end="url(#arr)"/><polyline points="-234.55,1219.88 -234.55,1271.88" fill="none" stroke="#9ca3af" stroke-width="1.4" marker-end="url(#arr)"/><polyline points="-234.55,1301.88 -234.55,1353.88" fill="none" stroke="#9ca3af" stroke-width="1.4" marker-end="url(#arr)"/><polyline points="-278.55,1368.88 -626,1368.88 -626,596 -41,596" fill="none" stroke="#2563eb" stroke-width="1.4" marker-end="url(#arr)"/><polyline points="203.2,756.15 203.2,808.15" fill="none" stroke="#9ca3af" stroke-width="1.4" marker-end="url(#arr)"/><polyline points="203.2,838.15 203.2,890.15" fill="none" stroke="#9ca3af" stroke-width="1.4" marker-end="url(#arr)"/><polyline points="203.2,920.15 203.2,964.15" fill="none" stroke="#9ca3af" stroke-width="1.4" marker-end="url(#arr)"/><polyline points="244.2,987.15 312.1,987.15 312.1,1103.19 377.2,1103.19" fill="none" stroke="#dc2626" stroke-width="1.4" marker-end="url(#arr)"/><polyline points="182.7,998.65 40.19,1091.19" fill="none" stroke="#1f2937" stroke-width="1.4" marker-end="url(#arr)"/><polyline points="84.19,1106.19 312.1,1106.19 312.1,1109.19 377.2,1109.19" fill="none" stroke="#dc2626" stroke-width="1.4" marker-end="url(#arr)"/><text x="118.39" y="653.76" font-size="9" fill="#6b7280" text-anchor="middle">yes</text><text x="-118.39" y="653.76" font-size="9" fill="#6b7280" text-anchor="middle">no</text><text x="-215.2" y="1044.84" font-size="9" fill="#6b7280" text-anchor="middle">yes</text><text x="-301.49" y="867.85" font-size="9" fill="#6b7280" text-anchor="middle">no</text><text x="-283.59" y="1140.72" font-size="9" fill="#6b7280" text-anchor="middle">yes</text><text x="-448.82" y="1140.72" font-size="9" fill="#6b7280" text-anchor="middle">no</text><text x="300.1" y="1040.77" font-size="9" fill="#6b7280" text-anchor="middle">yes</text><text x="104.91" y="1031.85" font-size="9" fill="#6b7280" text-anchor="middle">no</text><rect x="-24" y="-9" width="48" height="18" rx="9" fill="#f3f4f6" stroke="#111827" stroke-width="1.2"/><text x="0" y="3" font-size="9" fill="#111827" text-anchor="middle">START</text><rect x="-44" y="67" width="88" height="30" fill="#fff" stroke="#111827" stroke-width="1"/><text x="0" y="85" font-size="9" fill="#111827" text-anchor="middle">0:Z(3)</text><rect x="-44" y="121" width="88" height="30" fill="#fff" stroke="#111827" stroke-width="1"/><text x="0" y="139" font-size="9" fill="#111827" text-anchor="middle">1:Z(4)</text><rect x="-44" y="175" width="88" height="30" fill="#fff" stroke="#111827" stroke-width="1"/><text x="0" y="193" font-size="9" fill="#111827" text-anchor="middle">2:Z(5)</text><rect x="-44" y="229" width="88" height="30" fill="#fff" stroke="#111827" stroke-width="1"/><text x="0" y="247" font-size="9" fill="#111827" text-anchor="middle">3:Z(6)</text><rect x="-44" y="283" width="88" height="30" fill="#fff" stroke="#111827" stroke-width="1"/><text x="0" y="301" font-size="9" fill="#111827" text-anchor="middle">4:Z(7)</text><rect x="-44" y="337" width="88" height="30" fill="#fff" stroke="#111827" stroke-width="1"/><text x="0" y="355" font-size="9" fill="#111827" text-anchor="middle">5:Z(8)</text><rect x="-44" y="391" width="88" height="30" fill="#fff" stroke="#111827" stroke-width="1"/><text x="0" y="409" font-size="9" fill="#111827" text-anchor="middle">6:T(0,4)</text><rect x="-44" y="445" width="88" height="30" fill="#fff" stroke="#111827" stroke-width="1"/><text x="0" y="463" font-size="9" fill="#111827" text-anchor="middle">7:T(1,5)</text><rect x="-44" y="499" width="88" height="30" fill="#fff" stroke="#111827" stroke-width="1"/><text x="0" y="517" font-size="9" fill="#111827" text-anchor="middle">8:Z(6)</text><polygon points="0,573 41,596 0,619 -41,596" fill="#fff" stroke="#111827" stroke-width="1.2"/><text x="0" y="599" font-size="9" fill="#111827" text-anchor="middle">9:J(6,5,20)</text><rect x="-247.2" y="726.15" width="88" height="30" fill="#fff" stroke="#111827" stroke-width="1"/><text x="-203.2" y="744.15" font-size="9" fill="#111827" text-anchor="middle">10:Z(7)</text><polygon points="-203.2,800.15 -162.2,823.15 -203.2,846.15 -244.2,823.15" fill="#fff" stroke="#111827" stroke-width="1.2"/><text x="-203.2" y="826.15" font-size="9" fill="#111827" text-anchor="middle">11:J(4,7,17)</text><rect x="-410.21" y="927.19" width="88" height="30" fill="#fff" stroke="#111827" stroke-width="1"/><text x="-366.21" y="945.19" font-size="9" fill="#111827" text-anchor="middle">12:T(7,8)</text><rect x="-410.21" y="1009.19" width="88" height="30" fill="#fff" stroke="#111827" stroke-width="1"/><text x="-366.21" y="1027.19" font-size="9" fill="#111827" text-anchor="middle">13:S(8)</text><polygon points="-366.21,1083.19 -325.21,1106.19 -366.21,1129.19 -407.21,1106.19" fill="#fff" stroke="#111827" stroke-width="1.2"/><text x="-366.21" y="1109.19" font-size="9" fill="#111827" text-anchor="middle">14:J(8,4,17)</text><rect x="-541.86" y="1189.88" width="88" height="30" fill="#fff" stroke="#111827" stroke-width="1"/><text x="-497.86" y="1207.88" font-size="9" fill="#111827" text-anchor="middle">15:S(7)</text><rect x="-541.86" y="1271.88" width="88" height="30" fill="#fff" stroke="#111827" stroke-width="1"/><text x="-497.86" y="1289.88" font-size="9" fill="#111827" text-anchor="middle">16:J(4,4,12)</text><rect x="-278.55" y="1189.88" width="88" height="30" fill="#fff" stroke="#111827" stroke-width="1"/><text x="-234.55" y="1207.88" font-size="9" fill="#111827" text-anchor="middle">17:T(7,4)</text><rect x="-278.55" y="1271.88" width="88" height="30" fill="#fff" stroke="#111827" stroke-width="1"/><text x="-234.55" y="1289.88" font-size="9" fill="#111827" text-anchor="middle">18:S(6)</text><rect x="-278.55" y="1353.88" width="88" height="30" fill="#fff" stroke="#111827" stroke-width="1"/><text x="-234.55" y="1371.88" font-size="9" fill="#111827" text-anchor="middle">19:J(4,4,9)</text><rect x="159.2" y="726.15" width="88" height="30" fill="#fff" stroke="#111827" stroke-width="1"/><text x="203.2" y="744.15" font-size="9" fill="#111827" text-anchor="middle">20:T(4,2)</text><rect x="159.2" y="808.15" width="88" height="30" fill="#fff" stroke="#111827" stroke-width="1"/><text x="203.2" y="826.15" font-size="9" fill="#111827" text-anchor="middle">21:Z(0)</text><rect x="159.2" y="890.15" width="88" height="30" fill="#fff" stroke="#111827" stroke-width="1"/><text x="203.2" y="908.15" font-size="9" fill="#111827" text-anchor="middle">22:S(0)</text><polygon points="203.2,964.15 244.2,987.15 203.2,1010.15 162.2,987.15" fill="#fff" stroke="#111827" stroke-width="1.2"/><text x="203.2" y="990.15" font-size="9" fill="#111827" text-anchor="middle">23:J(2,3,25)</text><rect x="-3.81" y="1091.19" width="88" height="30" fill="#fff" stroke="#111827" stroke-width="1"/><text x="40.19" y="1109.19" font-size="9" fill="#111827" text-anchor="middle">24:Z(0)</text><rect x="377.2" y="1097.19" width="48" height="18" rx="9" fill="#f3f4f6" stroke="#111827" stroke-width="1.2"/><text x="401.2" y="1109.19" font-size="9" fill="#111827" text-anchor="middle">HALT</text><g class="ov-regions"><rect x="247" y="-9" width="130.2" height="1393" fill="#dc2626" opacity="0.06"><title>HALT reserved band</title></rect><rect x="308" y="-9" width="8" height="1393" fill="#dc2626" opacity="0.10"><title>shared HALT corridor x=312</title></rect><rect x="-586" y="932.19" width="8" height="364.68" fill="#2563eb" opacity="0.10"><title>loop-return|left@-542 lane 0 (i-16-jump)</title></rect><rect x="-630" y="586" width="8" height="792.88" fill="#2563eb" opacity="0.10"><title>loop-return|left@-542 lane 1 (i-19-jump)</title></rect></g><g class="ov-ancestry"><rect x="-247.2" y="726.15" width="88" height="30" fill="hsl(0,70%,50%)" opacity="0.16"><title>owner i-9 / no</title></rect><rect x="-244.2" y="800.15" width="82" height="46" fill="hsl(0,70%,50%)" opacity="0.16"><title>owner i-9 / no</title></rect><rect x="-410.21" y="927.19" width="88" height="30" fill="hsl(138,70%,50%)" opacity="0.16"><title>owner i-11 / no</title></rect><rect x="-410.21" y="1009.19" width="88" height="30" fill="hsl(138,70%,50%)" opacity="0.16"><title>owner i-11 / no</title></rect><rect x="-407.21" y="1083.19" width="82" height="46" fill="hsl(138,70%,50%)" opacity="0.16"><title>owner i-11 / no</title></rect><rect x="-541.86" y="1189.88" width="88" height="30" fill="hsl(275,70%,50%)" opacity="0.16"><title>owner i-14 / no</title></rect><rect x="-541.86" y="1271.88" width="88" height="30" fill="hsl(275,70%,50%)" opacity="0.16"><title>owner i-14 / no</title></rect><rect x="-278.55" y="1189.88" width="88" height="30" fill="hsl(275,70%,50%)" opacity="0.16"><title>owner i-14 / yes</title></rect><rect x="-278.55" y="1271.88" width="88" height="30" fill="hsl(275,70%,50%)" opacity="0.16"><title>owner i-14 / yes</title></rect><rect x="-278.55" y="1353.88" width="88" height="30" fill="hsl(275,70%,50%)" opacity="0.16"><title>owner i-14 / yes</title></rect><rect x="159.2" y="726.15" width="88" height="30" fill="hsl(0,70%,50%)" opacity="0.16"><title>owner i-9 / yes</title></rect><rect x="159.2" y="808.15" width="88" height="30" fill="hsl(0,70%,50%)" opacity="0.16"><title>owner i-9 / yes</title></rect><rect x="159.2" y="890.15" width="88" height="30" fill="hsl(0,70%,50%)" opacity="0.16"><title>owner i-9 / yes</title></rect><rect x="162.2" y="964.15" width="82" height="46" fill="hsl(0,70%,50%)" opacity="0.16"><title>owner i-9 / yes</title></rect><rect x="-3.81" y="1091.19" width="88" height="30" fill="hsl(0,70%,50%)" opacity="0.16"><title>owner i-9 / yes</title></rect></g><g class="ov-anchors"><line x1="118.39" y1="656.76" x2="20.5" y2="607.5" stroke="#c026d3" stroke-width="0.7" stroke-dasharray="3,3" opacity="0.6"/><g stroke="#c026d3" stroke-width="1.4"><line x1="114.39" y1="656.76" x2="122.39" y2="656.76"/><line x1="118.39" y1="652.76" x2="118.39" y2="660.76"/><title>i-9-yes "yes" anchor, 133px from diamond (branch-exit)</title></g><line x1="-118.39" y1="656.76" x2="-20.5" y2="607.5" stroke="#c026d3" stroke-width="0.7" stroke-dasharray="3,3" opacity="0.6"/><g stroke="#c026d3" stroke-width="1.4"><line x1="-122.39" y1="656.76" x2="-114.39" y2="656.76"/><line x1="-118.39" y1="652.76" x2="-118.39" y2="660.76"/><title>i-9-no "no" anchor, 133px from diamond (branch-exit)</title></g><line x1="-215.2" y1="1047.84" x2="-203.2" y2="846.15" stroke="#dc2626" stroke-width="0.7" stroke-dasharray="3,3" opacity="0.6"/><g stroke="#dc2626" stroke-width="1.4"><line x1="-219.2" y1="1047.84" x2="-211.2" y2="1047.84"/><line x1="-215.2" y1="1043.84" x2="-215.2" y2="1051.84"/><title>i-11-yes "yes" anchor, 225px from diamond (merge-connector)</title></g><line x1="-301.49" y1="870.85" x2="-223.7" y2="834.65" stroke="#c026d3" stroke-width="0.7" stroke-dasharray="3,3" opacity="0.6"/><g stroke="#c026d3" stroke-width="1.4"><line x1="-305.49" y1="870.85" x2="-297.49" y2="870.85"/><line x1="-301.49" y1="866.85" x2="-301.49" y2="874.85"/><title>i-11-no "no" anchor, 109px from diamond (branch-exit)</title></g><line x1="-283.59" y1="1143.72" x2="-345.71" y2="1117.69" stroke="#c026d3" stroke-width="0.7" stroke-dasharray="3,3" opacity="0.6"/><g stroke="#c026d3" stroke-width="1.4"><line x1="-287.59" y1="1143.72" x2="-279.59" y2="1143.72"/><line x1="-283.59" y1="1139.72" x2="-283.59" y2="1147.72"/><title>i-14-yes "yes" anchor, 91px from diamond (branch-exit)</title></g><line x1="-448.82" y1="1143.72" x2="-386.71" y2="1117.69" stroke="#c026d3" stroke-width="0.7" stroke-dasharray="3,3" opacity="0.6"/><g stroke="#c026d3" stroke-width="1.4"><line x1="-452.82" y1="1143.72" x2="-444.82" y2="1143.72"/><line x1="-448.82" y1="1139.72" x2="-448.82" y2="1147.72"/><title>i-14-no "no" anchor, 91px from diamond (branch-exit)</title></g><line x1="300.1" y1="1043.77" x2="244.2" y2="987.15" stroke="#c026d3" stroke-width="0.7" stroke-dasharray="3,3" opacity="0.6"/><g stroke="#c026d3" stroke-width="1.4"><line x1="296.1" y1="1043.77" x2="304.1" y2="1043.77"/><line x1="300.1" y1="1039.77" x2="300.1" y2="1047.77"/><title>i-23-yes "yes" anchor, 112px from diamond (halt)</title></g><line x1="104.91" y1="1034.85" x2="182.7" y2="998.65" stroke="#c026d3" stroke-width="0.7" stroke-dasharray="3,3" opacity="0.6"/><g stroke="#c026d3" stroke-width="1.4"><line x1="100.91" y1="1034.85" x2="108.91" y2="1034.85"/><line x1="104.91" y1="1030.85" x2="104.91" y2="1038.85"/><title>i-23-no "no" anchor, 109px from diamond (branch-exit)</title></g></g><g class="ov-ports"><circle cx="0" cy="9" r="1.5" fill="#9ca3af" opacity="0.7"/><circle cx="0" cy="67" r="1.5" fill="#9ca3af" opacity="0.7"/><circle cx="0" cy="97" r="1.5" fill="#9ca3af" opacity="0.7"/><circle cx="0" cy="121" r="1.5" fill="#9ca3af" opacity="0.7"/><circle cx="0" cy="151" r="1.5" fill="#9ca3af" opacity="0.7"/><circle cx="0" cy="175" r="1.5" fill="#9ca3af" opacity="0.7"/><circle cx="0" cy="205" r="1.5" fill="#9ca3af" opacity="0.7"/><circle cx="0" cy="229" r="1.5" fill="#9ca3af" opacity="0.7"/><circle cx="0" cy="259" r="1.5" fill="#9ca3af" opacity="0.7"/><circle cx="0" cy="283" r="1.5" fill="#9ca3af" opacity="0.7"/><circle cx="0" cy="313" r="1.5" fill="#9ca3af" opacity="0.7"/><circle cx="0" cy="337" r="1.5" fill="#9ca3af" opacity="0.7"/><circle cx="0" cy="367" r="1.5" fill="#9ca3af" opacity="0.7"/><circle cx="0" cy="391" r="1.5" fill="#9ca3af" opacity="0.7"/><circle cx="0" cy="421" r="1.5" fill="#9ca3af" opacity="0.7"/><circle cx="0" cy="445" r="1.5" fill="#9ca3af" opacity="0.7"/><circle cx="0" cy="475" r="1.5" fill="#9ca3af" opacity="0.7"/><circle cx="0" cy="499" r="1.5" fill="#9ca3af" opacity="0.7"/><circle cx="0" cy="529" r="1.5" fill="#9ca3af" opacity="0.7"/><circle cx="0" cy="573" r="1.5" fill="#9ca3af" opacity="0.7"/><circle cx="20.5" cy="607.5" r="1.5" fill="#9ca3af" opacity="0.7"/><circle cx="203.2" cy="726.15" r="1.5" fill="#9ca3af" opacity="0.7"/><circle cx="-20.5" cy="607.5" r="1.5" fill="#9ca3af" opacity="0.7"/><circle cx="-203.2" cy="726.15" r="1.5" fill="#9ca3af" opacity="0.7"/><circle cx="-203.2" cy="756.15" r="1.5" fill="#9ca3af" opacity="0.7"/><circle cx="-203.2" cy="800.15" r="1.5" fill="#9ca3af" opacity="0.7"/><circle cx="-203.2" cy="846.15" r="1.5" fill="#9ca3af" opacity="0.7"/><circle cx="-190.55" cy="1204.88" r="1.5" fill="#9ca3af" opacity="0.7"/><circle cx="-223.7" cy="834.65" r="1.5" fill="#9ca3af" opacity="0.7"/><circle cx="-366.21" cy="927.19" r="1.5" fill="#9ca3af" opacity="0.7"/><circle cx="-366.21" cy="957.19" r="1.5" fill="#9ca3af" opacity="0.7"/><circle cx="-366.21" cy="1009.19" r="1.5" fill="#9ca3af" opacity="0.7"/><circle cx="-366.21" cy="1039.19" r="1.5" fill="#9ca3af" opacity="0.7"/><circle cx="-366.21" cy="1083.19" r="1.5" fill="#9ca3af" opacity="0.7"/><circle cx="-345.71" cy="1117.69" r="1.5" fill="#9ca3af" opacity="0.7"/><circle cx="-234.55" cy="1189.88" r="1.5" fill="#9ca3af" opacity="0.7"/><circle cx="-386.71" cy="1117.69" r="1.5" fill="#9ca3af" opacity="0.7"/><circle cx="-497.86" cy="1189.88" r="1.5" fill="#9ca3af" opacity="0.7"/><circle cx="-497.86" cy="1219.88" r="1.5" fill="#9ca3af" opacity="0.7"/><circle cx="-497.86" cy="1271.88" r="1.5" fill="#9ca3af" opacity="0.7"/><circle cx="-541.86" cy="1286.88" r="1.5" fill="#9ca3af" opacity="0.7"/><circle cx="-410.21" cy="942.19" r="1.5" fill="#9ca3af" opacity="0.7"/><circle cx="-234.55" cy="1219.88" r="1.5" fill="#9ca3af" opacity="0.7"/><circle cx="-234.55" cy="1271.88" r="1.5" fill="#9ca3af" opacity="0.7"/><circle cx="-234.55" cy="1301.88" r="1.5" fill="#9ca3af" opacity="0.7"/><circle cx="-234.55" cy="1353.88" r="1.5" fill="#9ca3af" opacity="0.7"/><circle cx="-278.55" cy="1368.88" r="1.5" fill="#9ca3af" opacity="0.7"/><circle cx="-41" cy="596" r="1.5" fill="#9ca3af" opacity="0.7"/><circle cx="203.2" cy="756.15" r="1.5" fill="#9ca3af" opacity="0.7"/><circle cx="203.2" cy="808.15" r="1.5" fill="#9ca3af" opacity="0.7"/><circle cx="203.2" cy="838.15" r="1.5" fill="#9ca3af" opacity="0.7"/><circle cx="203.2" cy="890.15" r="1.5" fill="#9ca3af" opacity="0.7"/><circle cx="203.2" cy="920.15" r="1.5" fill="#9ca3af" opacity="0.7"/><circle cx="203.2" cy="964.15" r="1.5" fill="#9ca3af" opacity="0.7"/><circle cx="244.2" cy="987.15" r="1.5" fill="#9ca3af" opacity="0.7"/><circle cx="377.2" cy="1103.19" r="1.5" fill="#9ca3af" opacity="0.7"/><circle cx="182.7" cy="998.65" r="1.5" fill="#9ca3af" opacity="0.7"/><circle cx="40.19" cy="1091.19" r="1.5" fill="#9ca3af" opacity="0.7"/><circle cx="84.19" cy="1106.19" r="1.5" fill="#9ca3af" opacity="0.7"/><circle cx="377.2" cy="1109.19" r="1.5" fill="#9ca3af" opacity="0.7"/></g><g class="ov-illegal"><g><circle cx="203" cy="726" r="6" fill="none" stroke="#dc2626" stroke-width="1.6"/><text x="211" y="720" font-size="7" fill="#dc2626">north-west</text><title>i-9-yes target: legal port top, illegal incident direction north-west; expected north</title></g><g><circle cx="-203" cy="726" r="6" fill="none" stroke="#dc2626" stroke-width="1.6"/><text x="-195" y="720" font-size="7" fill="#dc2626">north-east</text><title>i-9-no target: legal port top, illegal incident direction north-east; expected north</title></g><g><circle cx="-366" cy="927" r="6" fill="none" stroke="#dc2626" stroke-width="1.6"/><text x="-358" y="921" font-size="7" fill="#dc2626">north-east</text><title>i-11-no target: legal port top, illegal incident direction north-east; expected north</title></g><g><circle cx="-235" cy="1190" r="6" fill="none" stroke="#dc2626" stroke-width="1.6"/><text x="-227" y="1184" font-size="7" fill="#dc2626">north-west</text><title>i-14-yes target: legal port top, illegal incident direction north-west; expected north</title></g><g><circle cx="-498" cy="1190" r="6" fill="none" stroke="#dc2626" stroke-width="1.6"/><text x="-490" y="1184" font-size="7" fill="#dc2626">north-east</text><title>i-14-no target: legal port top, illegal incident direction north-east; expected north</title></g><g><circle cx="40" cy="1091" r="6" fill="none" stroke="#dc2626" stroke-width="1.6"/><text x="48" y="1085" font-size="7" fill="#dc2626">north-east</text><title>i-23-no target: legal port top, illegal incident direction north-east; expected north</title></g></g><g class="ov-roles" style="display:none"><text x="3" y="65" font-size="7" fill="#374151" opacity="0.8">entry-link</text><text x="3" y="119" font-size="7" fill="#374151" opacity="0.8">setup-link</text><text x="3" y="173" font-size="7" fill="#374151" opacity="0.8">setup-link</text><text x="3" y="227" font-size="7" fill="#374151" opacity="0.8">setup-link</text><text x="3" y="281" font-size="7" fill="#374151" opacity="0.8">setup-link</text><text x="3" y="335" font-size="7" fill="#374151" opacity="0.8">setup-link</text><text x="3" y="389" font-size="7" fill="#374151" opacity="0.8">setup-link</text><text x="3" y="443" font-size="7" fill="#374151" opacity="0.8">setup-link</text><text x="3" y="497" font-size="7" fill="#374151" opacity="0.8">setup-link</text><text x="3" y="571" font-size="7" fill="#374151" opacity="0.8">spine-continuation</text><text x="206.2" y="724.15" font-size="7" fill="#374151" opacity="0.8">branch-exit</text><text x="-200.2" y="724.15" font-size="7" fill="#374151" opacity="0.8">branch-exit</text><text x="-200.2" y="798.15" font-size="7" fill="#374151" opacity="0.8">spine-continuation</text><text x="-171.55" y="1171.88" font-size="7" fill="#374151" opacity="0.8">merge-connector</text><text x="-363.21" y="925.19" font-size="7" fill="#374151" opacity="0.8">branch-exit</text><text x="-363.21" y="1007.19" font-size="7" fill="#374151" opacity="0.8">spine-continuation</text><text x="-363.21" y="1081.19" font-size="7" fill="#374151" opacity="0.8">spine-continuation</text><text x="-231.55" y="1187.88" font-size="7" fill="#374151" opacity="0.8">branch-exit</text><text x="-494.86" y="1187.88" font-size="7" fill="#374151" opacity="0.8">branch-exit</text><text x="-494.86" y="1269.88" font-size="7" fill="#374151" opacity="0.8">spine-continuation</text><text x="-579" y="940.19" font-size="7" fill="#374151" opacity="0.8">loop-return</text><text x="-231.55" y="1269.88" font-size="7" fill="#374151" opacity="0.8">spine-continuation</text><text x="-231.55" y="1351.88" font-size="7" fill="#374151" opacity="0.8">spine-continuation</text><text x="-623" y="594" font-size="7" fill="#374151" opacity="0.8">loop-return</text><text x="206.2" y="806.15" font-size="7" fill="#374151" opacity="0.8">spine-continuation</text><text x="206.2" y="888.15" font-size="7" fill="#374151" opacity="0.8">spine-continuation</text><text x="206.2" y="962.15" font-size="7" fill="#374151" opacity="0.8">spine-continuation</text><text x="315.1" y="1101.19" font-size="7" fill="#374151" opacity="0.8">halt-exit</text><text x="43.19" y="1089.19" font-size="7" fill="#374151" opacity="0.8">branch-exit</text><text x="315.1" y="1107.19" font-size="7" fill="#374151" opacity="0.8">halt-exit</text></g></svg>