<svg xmlns="http://www.w3.org/2000/svg" viewBox="-656 -39 1111 1561" style="background:#fff"><defs><marker id="arr" markerWidth="8" markerHeight="8" refX="7" refY="4" orient="auto"><path d="M0,0 L8,4 L0,8 Z" fill="#374151"/></marker></defs><polyline points="0,9 0,67" fill="none" stroke="#9ca3af" stroke-width="1.4" marker-end="url(#arr)"/><polyline points="0,97 0,121" fill="none" stroke="#9ca3af" stroke-width="1.4" marker-end="url(#arr)"/><polyline points="0,151 0,175" fill="none" stroke="#9ca3af" stroke-width="1.4" marker-end="url(#arr)"/><polyline points="0,205 0,229" fill="none" stroke="#9ca3af" stroke-width="1.4" marker-end="url(#arr)"/><polyline points="0,259 0,283" fill="none" stroke="#9ca3af" stroke-width="1.4" marker-end="url(#arr)"/><polyline points="0,313 0,337" fill="none" stroke="#9ca3af" stroke-width="1.4" marker-end="url(#arr)"/><polyline points="0,367 0,391" fill="none" stroke="#9ca3af" stroke-width="1.4" marker-end="url(#arr)"/><polyline points="0,421 0,445" fill="none" stroke="#9ca3af" stroke-width="1.4" marker-end="url(#arr)"/><polyline points="0,475 0,499" fill="none" stroke="#9ca3af" stroke-width="1.4" marker-end="url(#arr)"/><polyline points="0,529 0,553" fill="none" stroke="#9ca3af" stroke-width="1.4" marker-end="url(#arr)"/><polyline points="0,583 0,607" fill="none" stroke="#9ca3af" stroke-width="1.4" marker-end="url(#arr)"/><polyline points="0,637 0,681" fill="none" stroke="#9ca3af" stroke-width="1.4" marker-end="url(#arr)"/><polyline points="20.5,715.5 203.2,834.15" fill="none" stroke="#1f2937" stroke-width="1.4" marker-end="url(#arr)"/><polyline points="-20.5,715.5 -203.2,834.15" fill="none" stroke="#1f2937" stroke-width="1.4" marker-end="url(#arr)"/><polyline points="-203.2,864.15 -203.2,908.15" fill="none" stroke="#9ca3af" stroke-width="1.4" marker-end="url(#arr)"/><polyline points="-203.2,954.15 -203.2,1281.88 -174.55,1281.88 -174.55,1312.88 -190.55,1312.88" fill="none" stroke="#16a34a" stroke-width="1.4" marker-end="url(#arr)"/><polyline points="-223.7,942.65 -366.21,1035.19" fill="none" stroke="#1f2937" stroke-width="1.4" marker-end="url(#arr)"/><polyline points="-366.21,1065.19 -366.21,1117.19" fill="none" stroke="#9ca3af" stroke-width="1.4" marker-end="url(#arr)"/><polyline points="-366.21,1147.19 -366.21,1191.19" fill="none" stroke="#9ca3af" stroke-width="1.4" marker-end="url(#arr)"/><polyline points="-345.71,1225.69 -234.55,1297.88" fill="none" stroke="#1f2937" stroke-width="1.4" marker-end="url(#arr)"/><polyline points="-386.71,1225.69 -497.86,1297.88" fill="none" stroke="#1f2937" stroke-width="1.4" marker-end="url(#arr)"/><polyline points="-497.86,1327.88 -497.86,1379.88" fill="none" stroke="#9ca3af" stroke-width="1.4" marker-end="url(#arr)"/><polyline points="-541.86,1394.88 -582,1394.88 -582,1050.19 -410.21,1050.19" fill="none" stroke="#2563eb" stroke-width="1.4" marker-end="url(#arr)"/><polyline points="-234.55,1327.88 -234.55,1379.88" fill="none" stroke="#9ca3af" stroke-width="1.4" marker-end="url(#arr)"/><polyline points="-234.55,1409.88 -234.55,1461.88" fill="none" stroke="#9ca3af" stroke-width="1.4" marker-end="url(#arr)"/><polyline points="-278.55,1476.88 -626,1476.88 -626,704 -41,704" fill="none" stroke="#2563eb" stroke-width="1.4" marker-end="url(#arr)"/><polyline points="203.2,864.15 203.2,916.15" fill="none" stroke="#9ca3af" stroke-width="1.4" marker-end="url(#arr)"/><polyline points="203.2,946.15 203.2,998.15" fill="none" stroke="#9ca3af" stroke-width="1.4" marker-end="url(#arr)"/><polyline points="203.2,1028.15 203.2,1072.15" fill="none" stroke="#9ca3af" stroke-width="1.4" marker-end="url(#arr)"/><polyline points="244.2,1095.15 312.1,1095.15 312.1,1211.19 377.2,1211.19" fill="none" stroke="#dc2626" stroke-width="1.4" marker-end="url(#arr)"/><polyline points="182.7,1106.65 40.19,1199.19" fill="none" stroke="#1f2937" stroke-width="1.4" marker-end="url(#arr)"/><polyline points="84.19,1214.19 312.1,1214.19 312.1,1217.19 377.2,1217.19" fill="none" stroke="#dc2626" stroke-width="1.4" marker-end="url(#arr)"/><text x="118.39" y="761.76" font-size="9" fill="#6b7280" text-anchor="middle">yes</text><text x="-118.39" y="761.76" font-size="9" fill="#6b7280" text-anchor="middle">no</text><text x="-215.2" y="1152.84" font-size="9" fill="#6b7280" text-anchor="middle">yes</text><text x="-301.49" y="975.85" font-size="9" fill="#6b7280" text-anchor="middle">no</text><text x="-283.59" y="1248.72" font-size="9" fill="#6b7280" text-anchor="middle">yes</text><text x="-448.82" y="1248.72" font-size="9" fill="#6b7280" text-anchor="middle">no</text><text x="300.1" y="1148.77" font-size="9" fill="#6b7280" text-anchor="middle">yes</text><text x="104.91" y="1139.85" font-size="9" fill="#6b7280" text-anchor="middle">no</text><rect x="-24" y="-9" width="48" height="18" rx="9" fill="#f3f4f6" stroke="#111827" stroke-width="1.2"/><text x="0" y="3" font-size="9" fill="#111827" text-anchor="middle">START</text><rect x="-44" y="67" width="88" height="30" fill="#fff" stroke="#111827" stroke-width="1"/><text x="0" y="85" font-size="9" fill="#111827" text-anchor="middle">0:Z(4)</text><rect x="-44" y="121" width="88" height="30" fill="#fff" stroke="#111827" stroke-width="1"/><text x="0" y="139" font-size="9" fill="#111827" text-anchor="middle">1:T(0,2)</text><rect x="-44" y="175" width="88" height="30" fill="#fff" stroke="#111827" stroke-width="1"/><text x="0" y="193" font-size="9" fill="#111827" text-anchor="middle">2:S(2)</text><rect x="-44" y="229" width="88" height="30" fill="#fff" stroke="#111827" stroke-width="1"/><text x="0" y="247" font-size="9" fill="#111827" text-anchor="middle">3:Z(5)</text><rect x="-44" y="283" width="88" height="30" fill="#fff" stroke="#111827" stroke-width="1"/><text x="0" y="301" font-size="9" fill="#111827" text-anchor="middle">4:Z(6)</text><rect x="-44" y="337" width="88" height="30" fill="#fff" stroke="#111827" stroke-width="1"/><text x="0" y="355" font-size="9" fill="#111827" text-anchor="middle">5:Z(7)</text><rect x="-44" y="391" width="88" height="30" fill="#fff" stroke="#111827" stroke-width="1"/><text x="0" y="409" font-size="9" fill="#111827" text-anchor="middle">6:Z(8)</text><rect x="-44" y="445" width="88" height="30" fill="#fff" stroke="#111827" stroke-width="1"/><text x="0" y="463" font-size="9" fill="#111827" text-anchor="middle">7:Z(9)</text><rect x="-44" y="499" width="88" height="30" fill="#fff" stroke="#111827" stroke-width="1"/><text x="0" y="517" font-size="9" fill="#111827" text-anchor="middle">8:T(2,5)</text><rect x="-44" y="553" width="88" height="30" fill="#fff" stroke="#111827" stroke-width="1"/><text x="0" y="571" font-size="9" fill="#111827" text-anchor="middle">9:T(1,6)</text><rect x="-44" y="607" width="88" height="30" fill="#fff" stroke="#111827" stroke-width="1"/><text x="0" y="625" font-size="9" fill="#111827" text-anchor="middle">10:Z(7)</text><polygon points="0,681 41,704 0,727 -41,704" fill="#fff" stroke="#111827" stroke-width="1.2"/><text x="0" y="707" font-size="9" fill="#111827" text-anchor="middle">11:J(7,6,22)</text><rect x="-247.2" y="834.15" width="88" height="30" fill="#fff" stroke="#111827" stroke-width="1"/><text x="-203.2" y="852.15" font-size="9" fill="#111827" text-anchor="middle">12:Z(8)</text><polygon points="-203.2,908.15 -162.2,931.15 -203.2,954.15 -244.2,931.15" fill="#fff" stroke="#111827" stroke-width="1.2"/><text x="-203.2" y="934.15" font-size="9" fill="#111827" text-anchor="middle">13:J(5,8,19)</text><rect x="-410.21" y="1035.19" width="88" height="30" fill="#fff" stroke="#111827" stroke-width="1"/><text x="-366.21" y="1053.19" font-size="9" fill="#111827" text-anchor="middle">14:T(8,9)</text><rect x="-410.21" y="1117.19" width="88" height="30" fill="#fff" stroke="#111827" stroke-width="1"/><text x="-366.21" y="1135.19" font-size="9" fill="#111827" text-anchor="middle">15:S(9)</text><polygon points="-366.21,1191.19 -325.21,1214.19 -366.21,1237.19 -407.21,1214.19" fill="#fff" stroke="#111827" stroke-width="1.2"/><text x="-366.21" y="1217.19" font-size="9" fill="#111827" text-anchor="middle">16:J(9,5,19)</text><rect x="-541.86" y="1297.88" width="88" height="30" fill="#fff" stroke="#111827" stroke-width="1"/><text x="-497.86" y="1315.88" font-size="9" fill="#111827" text-anchor="middle">17:S(8)</text><rect x="-541.86" y="1379.88" width="88" height="30" fill="#fff" stroke="#111827" stroke-width="1"/><text x="-497.86" y="1397.88" font-size="9" fill="#111827" text-anchor="middle">18:J(5,5,14)</text><rect x="-278.55" y="1297.88" width="88" height="30" fill="#fff" stroke="#111827" stroke-width="1"/><text x="-234.55" y="1315.88" font-size="9" fill="#111827" text-anchor="middle">19:T(8,5)</text><rect x="-278.55" y="1379.88" width="88" height="30" fill="#fff" stroke="#111827" stroke-width="1"/><text x="-234.55" y="1397.88" font-size="9" fill="#111827" text-anchor="middle">20:S(7)</text><rect x="-278.55" y="1461.88" width="88" height="30" fill="#fff" stroke="#111827" stroke-width="1"/><text x="-234.55" y="1479.88" font-size="9" fill="#111827" text-anchor="middle">21:J(5,5,11)</text><rect x="159.2" y="834.15" width="88" height="30" fill="#fff" stroke="#111827" stroke-width="1"/><text x="203.2" y="852.15" font-size="9" fill="#111827" text-anchor="middle">22:T(5,3)</text><rect x="159.2" y="916.15" width="88" height="30" fill="#fff" stroke="#111827" stroke-width="1"/><text x="203.2" y="934.15" font-size="9" fill="#111827" text-anchor="middle">23:Z(0)</text><rect x="159.2" y="998.15" width="88" height="30" fill="#fff" stroke="#111827" stroke-width="1"/><text x="203.2" y="1016.15" font-size="9" fill="#111827" text-anchor="middle">24:S(0)</text><polygon points="203.2,1072.15 244.2,1095.15 203.2,1118.15 162.2,1095.15" fill="#fff" stroke="#111827" stroke-width="1.2"/><text x="203.2" y="1098.15" font-size="9" fill="#111827" text-anchor="middle">25:J(3,4,27)</text><rect x="-3.81" y="1199.19" width="88" height="30" fill="#fff" stroke="#111827" stroke-width="1"/><text x="40.19" y="1217.19" font-size="9" fill="#111827" text-anchor="middle">26:Z(0)</text><rect x="377.2" y="1205.19" width="48" height="18" rx="9" fill="#f3f4f6" stroke="#111827" stroke-width="1.2"/><text x="401.2" y="1217.19" font-size="9" fill="#111827" text-anchor="middle">HALT</text></svg>